<svg width="208" height="126" viewBox="0 0 208 126" fill="none" xmlns="http://www.w3.org/2000/svg">
<path d="M95.5001 24.5L93.5411 24.9033L95.5001 24.5ZM26 114L6.15765 102.184L5.84604 125.276L26 114ZM207.251 3.51579C187.434 1.00728 158.005 -1.05948 134.171 0.931899C122.29 1.92456 111.579 3.94078 104.132 7.55367C100.397 9.36578 97.3283 11.6527 95.3968 14.5631C93.424 17.5356 92.7393 21.0084 93.5411 24.9033L97.459 24.0966C96.8609 21.1915 97.3761 18.8143 98.7295 16.775C100.124 14.6737 102.508 12.7873 105.878 11.1525C112.64 7.87163 122.747 5.90035 134.504 4.91801C157.946 2.95939 187.066 4.99263 206.749 7.48412L207.251 3.51579ZM93.5411 24.9033C94.3429 28.7973 93.7924 31.4118 92.5733 33.2366C91.3284 35.1002 89.1574 36.4862 86.0319 37.4289C79.6997 39.3389 70.5006 39.133 60.8805 38.5042C51.4775 37.8897 41.6588 36.8661 34.7334 37.4124C31.3155 37.6821 28.1226 38.3549 26.0204 40.0233C24.9055 40.9081 24.0934 42.0762 23.7553 43.5394C23.4256 44.9658 23.5846 46.5047 24.0942 48.1064L27.9059 46.8936C27.5405 45.7453 27.5315 44.9639 27.6525 44.4401C27.7651 43.9531 28.0223 43.5411 28.507 43.1564C29.6041 42.2857 31.7315 41.6617 35.048 41.4C41.5913 40.8839 50.8976 41.8603 60.6196 42.4957C70.1245 43.117 80.0504 43.4111 87.187 41.2585C90.7958 40.17 93.9451 38.3841 95.8994 35.4586C97.8796 32.4943 98.4073 28.7026 97.459 24.0966L93.5411 24.9033ZM24.0942 48.1064C25.3248 51.9741 24.0021 57.3653 21.0047 63.8861C18.0553 70.3025 13.787 77.2091 9.84915 83.9565C5.98503 90.5777 2.37137 97.1518 1.09557 102.582C0.45274 105.319 0.334073 108.033 1.31168 110.405C2.3268 112.867 4.37818 114.617 7.34299 115.647L8.6546 111.868C6.52133 111.127 5.49705 110.062 5.00979 108.88C4.48503 107.607 4.43728 105.848 4.98956 103.497C6.10397 98.7536 9.37723 92.701 13.3039 85.9727C17.1568 79.3707 21.583 72.2053 24.6391 65.5568C27.6472 59.0128 29.6409 52.3463 27.9059 46.8936L24.0942 48.1064Z" fill="#6063EB"/>
</svg>
